{"accessors" : [{"bufferView" : 0, "byteOffset" : 0, "componentType" : 5123, "count" : 55851, "type" : "SCALAR", "max" : [45820], "min" : [0]}, {"bufferView" : 1, "byteOffset" : 0, "componentType" : 5126, "count" : 45821, "type" : "VEC3", "max" : [0.3216293752193451, 0.7101231217384338, 0.19019027054309845], "min" : [-0.3216293752193451, 3.0896382668288425E-05, -0.1639309823513031], "name" : "POSITION"}, {"bufferView" : 1, "byteOffset" : 12, "componentType" : 5126, "count" : 45821, "type" : "VEC3", "max" : [0.9999502301216125, 0.9985474944114685, 0.9999111890792847], "min" : [-0.9996464252471924, -0.999275803565979, -0.999984860420227], "name" : "NORMAL"}, {"bufferView" : 1, "byteOffset" : 24, "componentType" : 5126, "count" : 45821, "type" : "VEC2", "max" : [0.9902675151824951, 1.995205044746399], "min" : [0.01224486529827118, 1.0034089088439941], "name" : "TEXCOORD_0"}, {"bufferView" : 0, "byteOffset" : 111704, "componentType" : 5123, "count" : 10098, "type" : "SCALAR", "max" : [7930], "min" : [0]}, {"bufferView" : 2, "byteOffset" : 0, "componentType" : 5126, "count" : 7931, "type" : "VEC3", "max" : [0.00874579232186079, 0.6211537718772888, 0.10657980293035507], "min" : [-0.012024766765534878, 0.5305076241493225, 0.052790578454732895], "name" : "POSITION"}, {"bufferView" : 2, "byteOffset" : 12, "componentType" : 5126, "count" : 7931, "type" : "VEC3", "max" : [0.997551679611206, 0.9993686676025391, 0.9996653199195862], "min" : [-0.9994630217552185, -0.995897114276886, -0.6926976442337036], "name" : "NORMAL"}, {"bufferView" : 2, "byteOffset" : 24, "componentType" : 5126, "count" : 7931, "type" : "VEC2", "max" : [0.3077884912490845, 1.9962608814239502], "min" : [0.006747008766978979, 1.6291537284851074], "name" : "TEXCOORD_0"}], "asset" : {"generator" : "Aspose.3D 24.1.0", "version" : "2.0"}, "buffers" : [{"uri" : "data:application/octet-stream;base64,", "byteLength" : 2242280}], "bufferViews" : [{"buffer" : 0, "byteOffset" : 0, "byteLength" : 131900, "target" : 34963}, {"buffer" : 0, "byteOffset" : 131904, "byteLength" : 1787232, "byteStride" : 32, "target" : 34962}, {"buffer" : 0, "byteOffset" : 1919140, "byteLength" : 323136, "byteStride" : 32, "target" : 34962}], "materials" : [{"name" : "Material.002", "pbrMetallicRoughness" : {"baseColorFactor" : [0.003696438390761614, 0.008195118978619576, 0.6915447115898132, 1], "metallicFactor" : 0, "roughnessFactor" : 0.5}, "emissiveFactor" : [0, 0, 0], "alphaMode" : "OPAQUE", "doubleSided" : true}, {"name" : "Material.002", "pbrMetallicRoughness" : {"baseColorFactor" : [0.003696438390761614, 0.008195118978619576, 0.6915447115898132, 1], "metallicFactor" : 0, "roughnessFactor" : 0.5}, "emissiveFactor" : [0, 0, 0], "alphaMode" : "OPAQUE", "doubleSided" : true}], "meshes" : [{"primitives" : [{"attributes" : {"POSITION" : 1, "NORMAL" : 2, "TEXCOORD_0" : 3}, "indices" : 0, "material" : 0, "mode" : 4}, {"attributes" : {"POSITION" : 5, "NORMAL" : 6, "TEXCOORD_0" : 7}, "indices" : 4, "material" : 1, "mode" : 4}]}], "nodes" : [{"mesh" : 0, "name" : "Polo Shirt.001"}, {"children" : [0], "matrix" : [1, 0, 0, 0, 0, 1, 0, 0, 0, 0, 1, 0, -0.1265089511871338, 0, -0.2857365608215332, 1], "name" : "Polo Shirt"}], "scene" : 0, "scenes" : [{"nodes" : [1]}]}
